<?xml version="1.0" encoding="utf-8"?>
<!-- Generator: Adobe Illustrator 18.0.0, SVG Export Plug-In . SVG Version: 6.00 Build 0)  -->
<!DOCTYPE svg PUBLIC "-//W3C//DTD SVG 1.1//EN" "http://www.w3.org/Graphics/SVG/1.1/DTD/svg11.dtd">
<svg version="1.1" id="Capa_1" xmlns="http://www.w3.org/2000/svg" xmlns:xlink="http://www.w3.org/1999/xlink" x="0px" y="0px"
	 viewBox="695.1 -0.3 357.5 800.6" enable-background="new 695.1 -0.3 357.5 800.6" xml:space="preserve">
<g>
	<path fill="#5EDB61" d="M1052.5,78.8c0,0-112.9,164.6-142.6,322.1l-112.3-21.4c10.7-71.3,4.2-144.4-17.8-212.8
		c30.9,8.3,57.1,30.3,70.1,60c0,0,7.1-161.7,31.5-227c0,0,56.5,68.9,31.5,203.9C912.3,203.6,981.2,88.9,1052.5,78.8z"/>
	<path fill="#EFF2F4" d="M909.9,400.9c-4.2,19-5.9,38-5.3,57.1c0.6,20.8,3.6,41,8.3,61.2c8.3,41.6,17.2,83.2,8.9,125.4
		c-11.9,61.8-71.3,102.8-133.7,90.9l0,0c-61.8-11.9-102.8-71.3-90.9-133.7c7.7-42.2,31.5-78.5,54.7-113.5
		c11.9-16.6,22-35.1,30.3-54.1c7.1-17.8,12.5-36.3,15.5-55.3L909.9,400.9z"/>
	<polygon fill="#6D5A61" points="752.4,715.3 717.9,774.1 754.8,764.6 771.4,800.3 799.3,773 830.2,795.5 819.5,728.4 	"/>
</g>
</svg>
