<?xml version="1.0" encoding="utf-8"?>
<!-- Generator: Adobe Illustrator 18.0.0, SVG Export Plug-In . SVG Version: 6.00 Build 0)  -->
<!DOCTYPE svg PUBLIC "-//W3C//DTD SVG 1.1//EN" "http://www.w3.org/Graphics/SVG/1.1/DTD/svg11.dtd">
<svg version="1.1" id="Layer_1" xmlns="http://www.w3.org/2000/svg" xmlns:xlink="http://www.w3.org/1999/xlink" x="0px" y="0px"
	 viewBox="0 0 512 512" enable-background="new 0 0 512 512" xml:space="preserve">
<path fill="#71D37A" d="M346.6,427H165.3c-15.2,0-27.4-12.3-27.4-27.4V146.3c0-15.2,12.3-27.4,27.4-27.4h181.3
	c15.2,0,27.4,12.3,27.4,27.4v253.2C374.1,414.7,361.8,427,346.6,427z"/>
<path fill="#3FB24F" d="M249.3,269.5c-9.2,0-17.5-6.2-19.9-15.5c-2.7-11,3.9-22.1,14.9-24.9c45.4-11.4,57.6-63.5,57.7-64.1
	c2.5-11,13.4-18,24.5-15.5c11,2.5,18,13.4,15.5,24.5c-0.7,3.2-18.1,77.5-87.8,94.9C252.6,269.3,250.9,269.5,249.3,269.5z"/>
<path fill="#139048" d="M326.5,149.5c-11-2.5-22,4.5-24.5,15.5c-0.1,0.5-10.3,43.9-46.4,60.2v43.3c68.5-18,85.7-91.4,86.4-94.5
	C344.5,162.9,337.6,152,326.5,149.5z"/>
<path fill="#3FB24F" d="M237.1,211.7c-21.7,0-39.2-6.6-51.6-13.6c-12.1-6.8-14-23.4-3.8-32.9c6.5-6,16.1-7.3,23.8-3
	c10,5.6,26.1,11.1,46.4,6.9c11.2-2.3,22.2,5,24.4,16.3c2.1,11.1-5.6,21.7-16.6,24C251.6,211,244.1,211.7,237.1,211.7z"/>
<path fill="#139048" d="M276.1,185c-2.1-9.8-10.8-16.5-20.5-16.3v41.4c1.5-0.3,3.1-0.5,4.6-0.9C271.3,207,278.4,196.1,276.1,185z"/>
<path fill="#3FB24F" d="M249.3,353.4c-8.9,0-17.1-5.8-19.7-14.8c-3.1-10.9,3.1-22.2,14-25.4c38.6-11.2,59.4-30.1,70-44
	c10.2-13.4,13-24.3,13-24.4c2.3-11.1,13.2-18.2,24.2-15.9s18.2,13.2,15.9,24.2c-0.6,2.9-15.9,71.7-111.8,99.5
	C253.1,353.2,251.2,353.4,249.3,353.4z"/>
<path fill="#139048" d="M350.8,228.9c-11.1-2.3-21.9,4.8-24.2,15.9c0,0.1-2.8,11.1-13,24.4c-9.5,12.4-27,28.7-58,40.1v43.1
	c95.3-27.9,110.5-96.4,111.1-99.3C369,242.1,361.9,231.2,350.8,228.9z"/>
<path fill="#3FB24F" d="M242.7,403.6c-26.2,0-50-10.2-69.4-29.7c-3.9-3.9-7.2-7.9-10.1-11.6c-7.9-10.3-3.8-25.3,8.1-30.5l0,0
	c8.4-3.6,18.2-1,23.8,6.3c9.2,11.9,26.4,27.4,52.4,25.3c11.2-0.9,20.9,7.6,21.5,18.8c0.6,11.1-8.2,20.4-19.2,21.1
	C247.6,403.5,245.1,403.6,242.7,403.6z"/>
<path fill="#139048" d="M269.2,381.7c-0.6-8.3-6.2-15-13.6-17.4v37.9C264.1,399.4,270,391.1,269.2,381.7z"/>
<path fill="#3FB24F" d="M212.7,264.3c0,12.1-9.8,21.9-21.9,21.9s-21.9-9.8-21.9-21.9s9.8-21.9,21.9-21.9S212.7,252.2,212.7,264.3z"
	/>
<path fill="#139048" d="M346.7,362.4c0,9.1-7.4,16.4-16.4,16.4c-9.1,0-16.4-7.4-16.4-16.4c0-9.1,7.4-16.4,16.4-16.4
	C339.3,346,346.7,353.4,346.7,362.4z"/>
<path fill="#E8E4DC" d="M167,76.6h178v42.2H167V76.6z"/>
<path fill="#E8E4DC" d="M255.6,76.6H345v42.2h-89.4V76.6z"/>
</svg>
